# xmcd
#
# Track frame offsets: 
#        150
#        28960
#        43688
#        59190
#        76423
#        95150
#        112993
#        129918
#        144598
#        165650
#        179848
#        196848
#        216035
#
# Disc length: 3128 seconds
#
# Revision: 11
# Processed by: cddbd v1.5.2PL0 Copyright (c) Steve Scherf et al.
# Submitted via: ExactAudioCopy v0.99pb5
#
DISCID=c20c360d
DTITLE=Dr. Alban - Look whos talking
DYEAR=1994
DGENRE=Eurodance
TTITLE0=Dr. Alban - Hard Pan Di Drums
TTITLE1=Dr. Alban - Look Who's Talking
TTITLE2=Dr. Alban - Free Up Soweto
TTITLE3=Dr. Alban - Away From Home
TTITLE4=Dr. Alban - Gimme dat Lovin'
TTITLE5=Dr. Alban - Let The Beat Go On
TTITLE6=Dr. Alban - Fire
TTITLE7=Dr. Alban - Home Sweet Home
TTITLE8=Dr. Alban - Go See The Dentist
TTITLE9=Dr. Alban - Sweet Little Girl
TTITLE10=Dr. Alban - Plastic Smile
TTITLE11=Dr. Alban - Awillawillawillahey
TTITLE12=Dr. Alban - Look Who's Talking (Stone's Radio)
EXTD=YEAR - 1994
EXTT0=
EXTT1=
EXTT2=
EXTT3=
EXTT4=
EXTT5=
EXTT6=
EXTT7=
EXTT8=
EXTT9=
EXTT10=
EXTT11=
EXTT12=
PLAYORDER=
